<svg width="80" height="80" viewBox="0 0 80 80" fill="none" xmlns="http://www.w3.org/2000/svg">
<path d="M39.8722 0L0 13.2461L6.30007 62.5598L39.9145 80L73.702 62.3241L80 13.0117L39.8722 0Z" fill="#B3B3B3"/>
<path d="M76.0227 15.8615L39.7793 4.19385V75.8329L70.1532 59.9642L76.0227 15.8615Z" fill="#A6120D"/>
<path d="M4.47363 16.0718L9.87407 60.1751L39.779 75.833V4.19263L4.47363 16.0718Z" fill="#DD1B16"/>
<path d="M49.7561 42.3306L39.7795 46.735H29.2639L24.3204 58.4058L15.127 58.5672L39.7795 6.79468L49.7561 42.3306ZM48.7912 40.1132L39.8454 23.3945L32.5071 39.8255H39.7788L48.7912 40.1132Z" fill="#F2F2F2"/>
<path d="M39.7793 6.79468L39.8452 23.3945L48.172 39.8382H39.7975L39.7793 46.7242L51.3587 46.735L56.7699 58.5684L65.567 58.7221L39.7793 6.79468Z" fill="#B3B3B3"/>
</svg>
