<svg width="80" height="80" viewBox="0 0 80 80" fill="none" xmlns="http://www.w3.org/2000/svg">
<path d="M2.15072 79.5835H0V61.4335H9.72945V63.6725H2.15072V69.6382H9.00572V71.8177H2.16438V79.5835H2.15072ZM13.4301 64.0519C13.1365 64.3717 12.7746 64.5279 12.3581 64.5279C11.9416 64.5279 11.5729 64.3717 11.2862 64.0519C10.9926 63.732 10.8492 63.3378 10.8492 62.884C10.8492 62.4303 10.9926 62.0286 11.2862 61.7162C11.5798 61.3963 11.9416 61.2401 12.3581 61.2401C12.7746 61.2401 13.1433 61.3963 13.4301 61.7162C13.7168 62.036 13.867 62.4303 13.867 62.884C13.867 63.3378 13.7168 63.7097 13.4301 64.0519ZM13.4301 79.5835H11.2862V67.1612H13.4301V79.5835ZM17.9022 79.5835H15.7583V67.1612H17.8134V69.1844H17.9022C18.1207 68.5075 18.5577 67.9571 19.2472 67.5182C19.9232 67.0793 20.5786 66.8636 21.2136 66.8636C21.8486 66.8636 22.3812 66.9603 22.8113 67.1612L21.992 69.3406C21.7189 69.2216 21.3365 69.1621 20.8449 69.1621C20.0597 69.1621 19.3906 69.4968 18.7898 70.1738C18.189 70.8507 17.8954 71.721 17.8954 72.7921V79.5835H17.9022ZM27.9799 80C26.2525 80 24.8528 79.3677 23.7808 78.1181C22.7089 76.8684 22.1627 75.284 22.1627 73.3797C22.1627 71.5796 22.6884 70.0101 23.7262 68.7009C24.7845 67.3918 26.1091 66.7372 27.7477 66.7372C29.441 66.7372 30.786 67.3322 31.8034 68.5373C32.8207 69.7498 33.3328 71.349 33.3328 73.35L33.3123 73.7889H24.3066C24.3612 75.0385 24.764 76.0278 25.4536 76.7643C26.1637 77.5007 26.983 77.8577 27.9252 77.8577C29.4546 77.8577 30.5061 77.1436 31.0523 75.7154L32.9641 76.5857C32.6022 77.5602 31.9809 78.3487 31.1274 79.0032C30.274 79.6653 29.2157 80 27.9799 80ZM31.0591 71.8772C31.0045 71.1631 30.7109 70.4862 30.1647 69.8539C29.6185 69.2216 28.7992 68.8795 27.7068 68.8795C26.9079 68.8795 26.232 69.1547 25.6516 69.6902C25.0713 70.2258 24.6684 70.9622 24.4499 71.8697L31.0591 71.8772ZM40.8637 80C39.9898 80 39.2114 79.7992 38.515 79.3826C37.8254 78.9884 37.3133 78.4677 36.9719 77.8577H36.8832V79.5835H34.828V61.4335H36.9719V67.1612L36.8832 68.8869H36.9719C37.3201 68.2695 37.8254 67.7786 38.515 67.362C39.2046 66.9678 39.9898 66.7446 40.8637 66.7446C42.3385 66.7446 43.6084 67.3769 44.6872 68.6489C45.7592 69.9208 46.2849 71.4829 46.2849 73.3649C46.2849 75.2468 45.7592 76.8163 44.6872 78.0809C43.6084 79.3677 42.3385 80 40.8637 80ZM40.495 77.8652C41.4987 77.8652 42.3521 77.4486 43.0622 76.6378C43.7723 75.827 44.1342 74.7336 44.1342 73.3872C44.1342 72.0408 43.7723 70.9473 43.0622 70.1366C42.3521 69.3258 41.4987 68.9092 40.495 68.9092C39.4913 68.9092 38.6242 69.3034 37.9278 70.1217C37.2382 70.9325 36.8695 72.0259 36.8695 73.3946C36.8695 74.7633 37.2177 75.8493 37.9278 76.6676C38.6447 77.4635 39.4982 77.8652 40.495 77.8652ZM51.6105 80C50.3883 80 49.3915 79.6206 48.5722 78.847C47.7528 78.0957 47.35 77.0841 47.35 75.8344C47.35 74.4881 47.8211 73.4169 48.7838 72.6433C49.7465 71.8697 50.9277 71.4904 52.3479 71.4904C53.6042 71.4904 54.642 71.7507 55.4408 72.2417V71.8846C55.4408 70.9697 55.1472 70.2407 54.5874 69.6828C54.007 69.1249 53.3106 68.8497 52.4776 68.8497C51.8563 68.8497 51.2964 69.0059 50.7843 69.3258C50.2723 69.6456 49.9309 70.077 49.7465 70.6573L47.7802 69.7423C48.0533 68.991 48.5653 68.3141 49.3437 67.6819C50.1289 67.0496 51.1462 66.7297 52.4161 66.7297C53.8704 66.7297 55.0926 67.1835 56.0553 68.1207C57.018 69.0505 57.4891 70.3597 57.4891 72.0482V79.576H55.434V77.8503H55.3452C54.5054 79.2859 53.2491 80 51.6105 80ZM51.9587 77.8652C52.8531 77.8652 53.652 77.5081 54.362 76.794C55.0926 76.0799 55.4545 75.2319 55.4545 74.2352C54.8536 73.6996 53.9456 73.4244 52.7234 73.4244C51.6856 73.4244 50.9072 73.6624 50.3747 74.1608C49.8489 74.6592 49.5758 75.2319 49.5758 75.8865C49.5758 76.5039 49.8148 76.98 50.3064 77.337C50.7912 77.6866 51.3374 77.8652 51.9587 77.8652ZM63.4565 80C62.1797 80 61.1283 79.6653 60.309 78.9884C59.4986 78.3435 58.8696 77.4651 58.4928 76.4518L60.4045 75.5815C61.0054 77.1436 62.0432 77.9172 63.4975 77.9172C64.1734 77.9172 64.7196 77.761 65.1361 77.4412C65.5526 77.1213 65.7711 76.6899 65.7711 76.1692C65.7711 75.3584 65.2454 74.8005 64.2076 74.5253L61.893 73.9153C61.1624 73.7145 60.4728 73.3202 59.8174 72.7623C59.1619 72.1896 58.8342 71.4309 58.8342 70.4639C58.8342 69.3704 59.2916 68.4852 60.1792 67.786C61.0737 67.0942 62.1251 66.752 63.3609 66.752C64.3646 66.752 65.2727 67.0124 66.051 67.5033C66.8499 68.0017 67.4166 68.7158 67.7443 69.6456L65.8872 70.4787C65.4707 69.3853 64.5967 68.8348 63.2858 68.8348C62.6509 68.8348 62.1183 68.9762 61.6881 69.2737C61.2512 69.5712 61.0327 69.9506 61.0327 70.4415C61.0327 71.1556 61.5448 71.6317 62.5416 71.892L64.7947 72.4648C65.8667 72.74 66.6519 73.2012 67.1776 73.8558C67.6897 74.5104 67.9423 75.2617 67.9423 76.0948C67.9423 77.2031 67.5258 78.1329 66.686 78.8917C65.8599 79.643 64.7811 80 63.4565 80ZM74.6471 80C72.9197 80 71.52 79.3677 70.4481 78.1181C69.3761 76.8684 68.8299 75.284 68.8299 73.3797C68.8299 71.5796 69.3556 70.0101 70.3934 68.7009C71.4517 67.3918 72.7763 66.7372 74.415 66.7372C76.1082 66.7372 77.4533 67.3322 78.4706 68.5373C79.4879 69.7498 80 71.349 80 73.35L79.9795 73.7889H70.9738C71.0284 75.0385 71.4313 76.0278 72.1208 76.7643C72.8309 77.5007 73.6503 77.8577 74.5925 77.8577C76.1219 77.8577 77.1733 77.1436 77.7196 75.7154L79.6313 76.5857C79.2694 77.5602 78.6481 78.3487 77.7947 79.0032C76.9344 79.6653 75.8829 80 74.6471 80ZM77.7196 71.8772C77.6649 71.1631 77.3713 70.4862 76.8251 69.8539C76.2789 69.2216 75.4596 68.8795 74.3672 68.8795C73.5683 68.8795 72.8924 69.1547 72.312 69.6902C71.7317 70.2258 71.3288 70.9622 71.1104 71.8697L77.7196 71.8772ZM21.1658 37.7791L26.4163 1.12219C26.6007 -0.127472 28.1369 -0.425013 28.6763 0.6982L34.316 12.2056L21.1658 37.7791ZM58.4928 46.683L53.4813 12.9196C53.3311 11.8708 52.1226 11.4394 51.4261 12.1981L19.8686 46.683L37.3406 57.3647C38.4262 58.0192 39.7849 58.0192 40.8705 57.3647L58.4928 46.683ZM44.3049 17.234L40.2629 8.85079C39.8122 7.89866 38.5764 7.89866 38.119 8.85079L20.3465 43.3654L44.3049 17.234Z" fill="#F58220"/>
</svg>
