<svg width="80" height="80" viewBox="0 0 80 80" fill="none" xmlns="http://www.w3.org/2000/svg">
<path d="M1.0625 61.625C0.6875 61.4375 0.4375 61 0.4375 60.5C0.4375 59.75 1 59.1875 1.75 59.1875C2 59.1875 2.25 59.25 2.4375 59.375C3.8125 60.3125 5.3125 60.75 6.625 60.75C8.0625 60.75 8.875 60.125 8.875 59.1875V59.125C8.875 58 7.3125 57.625 5.625 57.125C3.5 56.5 1.125 55.625 1.125 52.875V52.8125C1.125 50.0625 3.375 48.4375 6.25 48.4375C7.8125 48.4375 9.375 48.875 10.8125 49.625C11.25 49.875 11.625 50.3125 11.625 50.875C11.625 51.625 11 52.1875 10.25 52.1875C10 52.1875 9.8125 52.125 9.5625 52C8.375 51.375 7.1875 51 6.1875 51C4.875 51 4.1875 51.625 4.1875 52.4375V52.5C4.1875 53.5625 5.75 54 7.4375 54.5625C9.5625 55.1875 11.9375 56.1875 11.9375 58.75V58.8125C11.9375 61.875 9.5625 63.375 6.5625 63.375C4.75 63.375 2.75 62.8125 1.0625 61.625ZM24.875 55.9375C24.875 53.125 23 51.3125 20.75 51.3125C18.5 51.3125 16.5625 53.1875 16.5625 55.9375V56C16.5625 58.75 18.5 60.625 20.75 60.625C23 60.5 24.875 58.75 24.875 55.9375ZM13.375 50.125C13.375 49.1875 14.0625 48.4375 15 48.4375C15.9375 48.4375 16.6875 49.1875 16.6875 50.125V51.125C17.75 49.625 19.25 48.4375 21.5625 48.4375C24.9375 48.4375 28.25 51.125 28.25 55.875V55.9375C28.25 60.6875 25 63.375 21.5625 63.375C19.1875 63.375 17.6875 62.1875 16.6875 60.875V65.9375C16.6875 66.875 15.9375 67.5625 15 67.5625C14.125 67.5625 13.375 66.875 13.375 65.9375V50.125ZM29.625 50.0625C29.625 49.125 30.3125 48.375 31.25 48.375C32.1875 48.375 32.9375 49.125 32.9375 50.0625V50.875C33.125 49.625 35.125 48.4375 36.5625 48.4375C37.625 48.4375 38.1875 49.125 38.1875 50.0625C38.1875 50.9375 37.625 51.5 36.875 51.625C34.5 52.0625 32.875 54.0625 32.875 56.9375V61.6875C32.875 62.5625 32.125 63.3125 31.1875 63.3125C30.3125 63.3125 29.5625 62.625 29.5625 61.6875V50.0625M39.6875 50.0625C39.6875 49.125 40.4375 48.375 41.375 48.375C42.3125 48.375 43.0625 49.125 43.0625 50.0625V61.6875C43.0625 62.625 42.3125 63.3125 41.375 63.3125C40.4375 63.3125 39.6875 62.625 39.6875 61.6875V50.0625ZM44.5 50.125C44.5 49.1875 45.25 48.4375 46.1875 48.4375C47.125 48.4375 47.9375 49.1875 47.9375 50.125V50.8125C48.875 49.5 50.3125 48.4375 52.625 48.4375C56 48.4375 57.9375 50.625 57.9375 53.9375V61.6875C57.9375 62.625 57.1875 63.3125 56.25 63.3125C55.3125 63.3125 54.5 62.625 54.5 61.6875V54.9375C54.5 52.6875 53.3125 51.4375 51.3125 51.4375C49.3125 51.4375 47.9375 52.75 47.9375 55V61.6875C47.9375 62.625 47.1875 63.3125 46.1875 63.3125C45.25 63.3125 44.5 62.625 44.5 61.6875V50.125ZM66.5625 60.5625C64.25 60.5625 62.3125 58.8125 62.3125 55.9375V55.875C62.3125 53.0625 64.25 51.25 66.5625 51.25C68.875 51.25 70.875 53.125 70.875 55.875V55.9375C70.875 58.6875 68.875 60.5625 66.5625 60.5625ZM72.5 48.5C71.5625 48.5 70.8125 49.25 70.8125 50.1875V51.1875C69.6875 49.6875 68.1875 48.5 65.75 48.5C62.25 48.5 58.875 51.1875 58.875 56V56.0625C58.875 60.8125 62.25 63.5625 65.75 63.5625C68.1875 63.5625 69.75 62.375 70.8125 61.0625C70.625 63.6875 69 65 66.125 65C64.4375 65 62.9375 64.5625 61.5625 63.875C61.375 63.8125 61.1875 63.75 60.9375 63.75C60.125 63.75 59.5 64.375 59.5 65.125C59.5 65.75 59.875 66.1875 60.4375 66.4375C62.25 67.3125 64.0625 67.75 66.1875 67.75C68.875 67.75 70.9375 67.125 72.3125 65.8125C73.5625 64.625 74.25 62.8125 74.25 60.375V50.125C74.1875 49.1875 73.4375 48.5 72.5 48.5ZM43.0625 44.4375C43.0625 45.3125 42.3125 46.0625 41.375 46.0625C40.4375 46.0625 39.6875 45.3125 39.6875 44.4375C39.6875 43.5625 40.4375 42.8125 41.375 42.8125C42.3125 42.8125 43.0625 43.5625 43.0625 44.4375ZM51.8125 33.625C48.125 38.5 40.1875 36.875 35.0625 37.0625C35.0625 37.0625 34.1875 37.125 33.25 37.25C33.25 37.25 33.625 37.125 34 36.9375C37.5625 35.75 39.25 35.5 41.4375 34.375C45.5 32.3125 49.5625 27.875 50.375 23.25C48.8125 27.6875 44.125 31.5 39.8125 33.0625C36.875 34.125 31.5625 35.125 31.5625 35.125L31.375 35C27.75 33.3125 27.625 25.625 34.25 23.1875C37.125 22.125 39.875 22.6875 43 22C46.3125 21.25 50.1875 18.8125 51.75 15.625C53.5 20.8125 55.625 28.75 51.8125 33.625ZM51.875 14.125C51.4375 15.125 50.875 16.0625 50.25 16.875C47.5 14.125 43.6875 12.4375 39.4375 12.4375C31.125 12.4375 24.375 19.0625 24.375 27.125C24.375 31.375 26.25 35.1875 29.1875 37.875L29.5 38.1875C28.9375 37.75 28.875 36.9375 29.3125 36.4375C29.75 35.875 30.5625 35.8125 31.125 36.25C31.6875 36.6875 31.75 37.5 31.3125 38C30.875 38.5625 30.0625 38.625 29.5 38.1875L29.75 38.375C32.375 40.5 35.75 41.8125 39.4375 41.8125C47.375 41.8125 53.875 35.75 54.4375 28.1875C54.9375 24.5 53.8125 19.75 51.875 14.125ZM78.1875 49.5H77.625V50.25H78.1875C78.375 50.25 78.5625 50.125 78.5625 49.875C78.5625 49.625 78.375 49.5 78.1875 49.5ZM78.5 51.375L77.9375 50.5H77.5625V51.375H77.25V49.25H78.125C78.5 49.25 78.8125 49.5 78.8125 49.875C78.8125 50.375 78.375 50.5 78.25 50.5L78.8125 51.375H78.5ZM78 48.6875C77.125 48.6875 76.375 49.375 76.375 50.25C76.375 51.125 77.125 51.8125 78 51.8125C78.875 51.8125 79.625 51.125 79.625 50.25C79.625 49.4375 78.875 48.6875 78 48.6875ZM78 52.1875C76.9375 52.1875 76.0625 51.375 76.0625 50.3125C76.0625 49.25 76.9375 48.4375 78 48.4375C79.0625 48.4375 79.9375 49.25 79.9375 50.3125C79.9375 51.3125 79.0625 52.1875 78 52.1875Z" fill="#5FB832"/>
</svg>
