<svg width="80" height="80" viewBox="0 0 80 80" fill="none" xmlns="http://www.w3.org/2000/svg">
<path d="M42.2248 16.0012C32.348 16.0012 26.1773 21.3325 23.7063 31.9993C27.4088 26.6675 31.7311 24.6681 36.6681 26.0012C39.4869 26.76 41.5014 28.9675 43.7323 31.4137C47.3631 35.3931 51.5656 40 60.7433 40C70.6195 40 76.7908 34.6681 79.2618 23.9987C75.5587 29.3337 71.2369 31.3331 66.2994 30C63.4812 29.2406 61.469 27.0337 59.2352 24.5875C55.6067 20.6081 51.4053 16.0012 42.2248 16.0012ZM23.7063 40C13.8301 40 7.65881 45.3318 5.18774 56.0012C8.89029 50.6662 13.2121 48.6668 18.1496 50C20.9684 50.7593 22.9829 52.9662 25.2138 55.4125C28.8446 59.3918 33.0471 63.9987 42.2248 63.9987C52.1009 63.9987 58.2722 58.6675 60.7433 48.0006C57.0402 53.3325 52.7184 55.3318 47.7809 53.9987C44.9626 53.24 42.9505 51.0325 40.7167 48.5862C37.0882 44.6068 32.8868 40 23.7063 40Z" fill="#38B2AC"/>
</svg>
