<svg width="80" height="80" viewBox="0 0 80 80" fill="none" xmlns="http://www.w3.org/2000/svg">
<path d="M0 40V71C0 75.9706 4.02944 80 9 80H71C75.9706 80 80 75.9706 80 71V9C80 4.02944 75.9706 0 71 0H9C4.02944 0 0 4.02944 0 9V40ZM64.4672 36.8066C64.4672 36.8032 64.4703 36.8007 64.4736 36.8015C66.3872 37.2469 68.1263 38.2484 69.472 39.68C69.6581 39.8738 69.8382 40.0731 70.0118 40.2775C71.0309 41.4773 70.7444 42.7542 69.4396 43.6346C68.3056 44.3998 66.8953 45.3237 65.8304 45.984C65.7536 46.0352 65.4464 45.7024 65.1072 45.1968C64.7228 44.5335 64.1767 43.9785 63.5197 43.5834C62.8628 43.1884 62.1165 42.9662 61.3504 42.9376C58.9248 42.7712 57.3632 44.0448 57.376 46.1376C57.3559 46.6586 57.4752 47.1756 57.7216 47.6352C58.2528 48.7424 59.2448 49.4016 62.3552 50.7456C68.0832 53.2096 70.5344 54.8352 72.0576 57.1456C73.76 59.7056 74.1376 63.84 72.9856 66.8992C71.7056 70.2272 68.5696 72.4864 64.1344 73.2352C62.1087 73.4672 60.062 73.4457 58.0416 73.1712C54.9451 72.6608 52.0927 71.174 49.9008 68.928C49.4285 68.4064 48.669 67.3473 48.209 66.6147C47.9029 66.1271 48.0495 65.6483 48.5568 65.376L51.52 63.7376L53.0758 62.8362C53.4935 62.5942 54.0273 62.7168 54.2976 63.1168C55.1077 64.2756 56.1386 65.263 57.3312 66.0224C59.8912 67.3664 63.3856 67.1808 65.1136 65.6256C65.6938 65.0557 66.0557 64.3004 66.1364 63.4912C66.2171 62.6819 66.0114 61.87 65.5552 61.1968C64.9152 60.3072 63.6352 59.5584 60.0576 57.9968C55.9296 56.2176 54.1504 55.1168 52.5248 53.3632C51.51 52.206 50.7607 50.8407 50.3296 49.3632C50.008 47.6752 49.9605 45.9464 50.1888 44.2432C51.04 40.256 54.0288 37.472 58.3936 36.6464C60.4129 36.3965 62.4584 36.4523 64.4611 36.8117C64.4643 36.8123 64.4672 36.8098 64.4672 36.8066ZM45.6896 40.1536C45.6896 41.9633 44.2225 43.4304 42.4128 43.4304H40.496C37.6277 43.4304 35.3024 45.7556 35.3024 48.624V69.3344C35.3024 71.3686 33.6534 73.0176 31.6192 73.0176C29.585 73.0176 27.936 71.3686 27.936 69.3344V48.6304C27.936 45.755 25.605 43.424 22.7296 43.424H20.7232C18.9559 43.424 17.5232 41.9913 17.5232 40.224C17.5205 40.1326 17.5182 40.0411 17.5163 39.9496C17.4756 37.9801 18.6626 36.8774 20.6326 36.8688C23.2224 36.8576 27.2275 36.8576 31.68 36.8576H42.355C44.1816 36.8576 45.6683 38.3271 45.6896 40.1536Z" fill="#007ACC"/>
</svg>
